HIERARCHY
ROOT Hips
{
	OFFSET 0.000000 0.000000 0.000000
	CHANNELS 6 Xposition Yposition Zposition Zrotation Yrotation Xrotation 
	JOINT LHipJoint
	{
		OFFSET 0.000000 0.000000 0.000000
		CHANNELS 3 Zrotation Yrotation Xrotation
		JOINT LeftUpLeg
		{
			OFFSET 1.363060 -1.794630 0.839290
			CHANNELS 3 Zrotation Yrotation Xrotation
			JOINT LeftLeg
			{
				OFFSET 2.448110 -6.726130 0.000000
				CHANNELS 3 Zrotation Yrotation Xrotation
				JOINT LeftFoot
				{
					OFFSET 2.562200 -7.039590 0.000000
					CHANNELS 3 Zrotation Yrotation Xrotation
					JOINT LeftToeBase
					{
						OFFSET 0.157640 -0.433110 2.322550
						CHANNELS 3 Zrotation Yrotation Xrotation
						End Site
						{
							OFFSET 0.000000 0.000000 0.000000
						}
					}
				}
			}
		}
	}
	JOINT RHipJoint
	{
		OFFSET 0.000000 0.000000 0.000000
		CHANNELS 3 Zrotation Yrotation Xrotation
		JOINT RightUpLeg
		{
			OFFSET -1.305520 -1.794630 0.839290
			CHANNELS 3 Zrotation Yrotation Xrotation
			JOINT RightLeg
			{
				OFFSET -2.542530 -6.985550 0.000000
				CHANNELS 3 Zrotation Yrotation Xrotation
				JOINT RightFoot
				{
					OFFSET -2.568260 -7.056230 0.000000
					CHANNELS 3 Zrotation Yrotation Xrotation
					JOINT RightToeBase
					{
						OFFSET -0.164730 -0.452590 2.363150
						CHANNELS 3 Zrotation Yrotation Xrotation
						End Site
						{
							OFFSET 0.000000 0.000000 0.000000
						}
					}
				}
			}
		}
	}
	JOINT LowerBack
	{
		OFFSET 0.000000 0.000000 0.000000
		CHANNELS 3 Zrotation Yrotation Xrotation
		JOINT Spine
		{
			OFFSET 0.028270 2.035590 -0.193380
			CHANNELS 3 Zrotation Yrotation Xrotation
			JOINT Spine1
			{
				OFFSET 0.056720 2.048850 -0.042750
				CHANNELS 3 Zrotation Yrotation Xrotation
				JOINT Neck
				{
					OFFSET 0.000000 0.000000 0.000000
					CHANNELS 3 Zrotation Yrotation Xrotation
					JOINT Neck1
					{
						OFFSET -0.054170 1.746240 0.172020
						CHANNELS 3 Zrotation Yrotation Xrotation
						JOINT Head
						{
							OFFSET 0.104070 1.761360 -0.123970
							CHANNELS 3 Zrotation Yrotation Xrotation
							End Site
							{
								OFFSET 0.000000 0.000000 0.000000
							}
						}
					}
				}
				JOINT LeftShoulder
				{
					OFFSET 0.000000 0.000000 0.000000
					CHANNELS 3 Zrotation Yrotation Xrotation
					JOINT LeftArm
					{
						OFFSET 3.362410 1.200890 -0.311210
						CHANNELS 3 Zrotation Yrotation Xrotation
						JOINT LeftForeArm
						{
							OFFSET 4.983000 -0.000000 -0.000000
							CHANNELS 3 Zrotation Yrotation Xrotation
							JOINT LeftHand
							{
								OFFSET 3.483560 -0.000000 -0.000000
								CHANNELS 3 Zrotation Yrotation Xrotation
								JOINT LeftFingerBase
								{
									OFFSET 0.000000 0.000000 0.000000
									CHANNELS 3 Zrotation Yrotation Xrotation
									JOINT LeftHandIndex1
									{
										OFFSET 0.715260 -0.000000 -0.000000
										CHANNELS 3 Zrotation Yrotation Xrotation
										End Site
										{
											OFFSET 0.000000 0.000000 0.000000
										}
									}
								}
								JOINT LThumb
								{
									OFFSET 0.000000 0.000000 0.000000
									CHANNELS 3 Zrotation Yrotation Xrotation
									End Site
									{
										OFFSET 0.000000 0.000000 0.000000
									}
								}
							}
						}
					}
				}
				JOINT RightShoulder
				{
					OFFSET 0.000000 0.000000 0.000000
					CHANNELS 3 Zrotation Yrotation Xrotation
					JOINT RightArm
					{
						OFFSET -3.136600 1.374050 -0.404650
						CHANNELS 3 Zrotation Yrotation Xrotation
						JOINT RightForeArm
						{
							OFFSET -5.241900 -0.000000 -0.000000
							CHANNELS 3 Zrotation Yrotation Xrotation
							JOINT RightHand
							{
								OFFSET -3.444170 -0.000000 -0.000000
								CHANNELS 3 Zrotation Yrotation Xrotation
								JOINT RightFingerBase
								{
									OFFSET 0.000000 0.000000 0.000000
									CHANNELS 3 Zrotation Yrotation Xrotation
									JOINT RightHandIndex1
									{
										OFFSET -0.622530 -0.000000 -0.000000
										CHANNELS 3 Zrotation Yrotation Xrotation
										End Site
										{
											OFFSET 0.000000 0.000000 0.000000
										}
									}
								}
								JOINT RThumb
								{
									OFFSET 0.000000 0.000000 0.000000
									CHANNELS 3 Zrotation Yrotation Xrotation
									End Site
									{
										OFFSET 0.000000 0.000000 0.000000
									}
								}
							}
						}
					}
				}
			}
		}
	}
}
MOTION
Frames: 8
Frame Time: 0.008333
-31.214751 17.373951 -3.323709 67.970176 85.074858 64.699088 -0.470866 -3.961493 -1.837070 -22.104434 -3.172267 2.247921 0.597989 11.141402 27.444202 -2.168151 12.166772 -16.566825 0.049500 -1.435200 -3.947100 -4.486733 2.722046 -5.036122 16.959854 -0.613197 2.016279 -1.772071 -11.642294 30.275177 -0.190019 -17.914830 -35.946507 -0.385900 -3.989400 11.046700 -2.812359 3.015405 1.847532 0.116603 3.798507 -0.043593 1.783363 1.926633 6.644611 8.541380 19.558111 -3.113231 -0.361660 27.060061 12.583403 -2.198900 13.343400 12.882700 -7.543595 -2.711417 0.252851 -78.854884 -2.660787 30.267069 7.252969 -21.770864 -2.234366 -0.873869 0.255023 -4.469091 22.455868 -11.211325 -4.903900 -7.125000 0.000000 0.000000 -2.685400 17.510800 1.754900 12.317877 1.893367 -0.225920 68.357125 -0.591091 16.935883 -8.517027 20.645699 -2.917933 1.362913 1.100599 -5.248718 -10.019613 -26.344174 5.297800 7.125000 0.000000 0.000000 20.404300 -56.465500 -5.907500 
-31.217853 17.392992 -3.321355 66.166072 85.060747 62.926066 -0.488044 -3.979952 -1.835718 -22.001591 -3.001864 2.250762 0.571135 11.069651 27.248376 -2.215109 12.287650 -16.408332 0.069400 -1.699200 -4.675100 -4.505963 2.711422 -5.013106 17.224271 0.245113 2.384454 -1.761913 -11.642438 30.284001 -0.646085 -16.705929 -37.077772 -0.642700 -5.128600 14.275700 -2.746325 3.037287 1.972944 0.108134 3.823411 -0.064519 1.687973 1.952144 6.455985 8.750666 19.547664 -2.784825 -0.424285 27.026723 12.539122 -2.296100 13.365200 12.826000 -7.552847 -2.731859 0.271026 -78.815984 -2.696100 29.782975 6.965770 -21.385237 -2.148787 -0.875602 0.301692 -4.068448 22.587633 -12.048256 -5.303300 -7.125000 0.000000 0.000000 -2.635100 16.553300 1.777100 12.295285 1.889726 -0.241004 68.474782 -0.840135 17.458272 -8.698120 20.893130 -2.971311 1.356441 1.107666 -5.804140 -10.108140 -26.363503 5.343400 7.125000 0.000000 0.000000 20.318900 -56.495100 -5.896100 
-31.224699 17.386574 -3.320179 64.370732 85.034006 61.062712 -0.508201 -3.999516 -1.837457 -21.932586 -2.937997 2.259114 0.592225 11.097142 27.357122 -2.188763 12.220723 -16.515976 0.051100 -1.458300 -4.010900 -4.540318 2.682362 -5.016245 17.252957 -0.033347 2.259333 -1.744798 -11.625586 30.185889 -0.368064 -17.424532 -36.376692 -0.450100 -4.304100 11.933900 -2.696443 3.064705 2.207535 0.106630 3.862617 -0.067437 1.631745 1.978582 6.310549 8.857179 19.530033 -2.655162 -0.452179 26.999202 12.547992 -2.337900 13.367100 12.830400 -7.555802 -2.751141 0.277622 -78.760601 -2.661004 29.732218 6.892338 -21.286028 -2.126462 -0.892519 0.314924 -4.289929 22.906431 -12.315873 -5.508300 -7.125000 0.000000 0.000000 -2.419300 16.212500 1.649100 12.284098 1.892668 -0.252719 68.519530 -1.036266 18.060013 -8.948633 21.216319 -3.046244 1.346357 1.121773 -6.436303 -10.106623 -26.394219 5.348900 7.125000 0.000000 0.000000 20.337300 -56.522600 -5.915500 
-31.227480 17.383364 -3.320500 62.357977 84.999328 59.109708 -0.534122 -4.026519 -1.844551 -21.850532 -2.919680 2.185945 0.601946 11.109137 27.412363 -2.178617 12.209619 -16.634789 0.026600 -1.053700 -2.896600 -4.576578 2.652281 -5.012062 17.274000 -0.238628 2.015065 -1.728878 -11.616458 30.098564 -0.098391 -18.110078 -35.678428 -0.267800 -3.329100 9.196400 -2.640329 3.067659 2.243460 0.109346 3.866301 -0.071405 1.598738 1.981402 6.271315 8.852415 19.544356 -2.596085 -0.449781 27.006304 12.516875 -2.339000 13.372500 12.791300 -7.560319 -2.758589 0.282885 -78.734385 -2.649691 29.515267 6.833160 -21.204812 -2.110136 -0.900228 0.310367 -4.375278 22.933582 -12.215992 -5.473400 -7.125000 0.000000 0.000000 -2.389700 16.320000 1.623400 12.274990 1.888831 -0.267749 68.503678 -1.305043 18.982896 -9.306425 21.687231 -3.162924 1.336139 1.152529 -7.243445 -10.145440 -26.657192 5.419600 7.125000 0.000000 0.000000 20.467300 -56.786000 -6.087800 
-31.231758 17.386039 -3.319537 61.196248 85.007069 57.980509 -0.554206 -4.042117 -1.841847 -21.745831 -2.880389 2.046220 0.625202 11.147060 27.543360 -2.167941 12.187685 -16.717584 0.019700 -0.905200 -2.488000 -4.597303 2.639535 -4.994223 17.396467 -0.048895 2.059930 -1.701050 -11.580335 29.969989 -0.147350 -18.038455 -35.876001 -0.261400 -3.289500 9.085900 -2.601876 3.015570 2.412360 0.119442 3.786729 -0.118170 1.578132 1.954871 6.033612 8.845870 19.573743 -2.400582 -0.375190 27.041672 12.538406 -2.312400 13.404600 12.748200 -7.562186 -2.777997 0.277964 -78.746779 -2.505125 29.075951 6.726517 -21.062803 -2.082061 -0.896686 0.312088 -4.030877 22.799688 -12.161034 -5.413900 -7.125000 0.000000 0.000000 -2.480300 16.397200 1.680800 12.247375 1.899899 -0.287031 68.575695 -1.563730 19.386182 -9.462871 21.891249 -3.210497 1.332500 1.156447 -7.371257 -10.100948 -26.708623 5.407400 7.125000 0.000000 0.000000 20.548000 -56.826100 -6.133400 
-31.238391 17.387750 -3.317932 60.433830 85.060365 57.249751 -0.566991 -4.052265 -1.844018 -21.614054 -2.839624 1.903805 0.644619 11.177643 27.652065 -2.158408 12.168071 -16.795810 0.027600 -1.072100 -2.947300 -4.615666 2.633599 -4.987659 17.530578 0.030711 2.073200 -1.673665 -11.547465 29.843186 -0.157264 -18.068117 -35.973825 -0.249400 -3.213700 8.874200 -2.551045 2.962551 2.534806 0.136937 3.711802 -0.125818 1.589458 1.920289 5.961492 8.823945 19.581361 -2.335599 -0.352850 27.070139 12.587844 -2.298700 13.420700 12.759900 -7.562179 -2.784949 0.275279 -78.708056 -2.497847 28.988207 6.692954 -21.016986 -2.072600 -0.895241 0.313360 -3.916016 22.745368 -12.153380 -5.396400 -7.125000 0.000000 0.000000 -2.518000 16.411800 1.705600 12.241080 1.904311 -0.283651 68.665746 -1.388289 19.045653 -9.366861 21.750048 -3.172876 1.335264 1.135075 -6.898339 -9.959318 -26.513293 5.300300 7.125000 0.000000 0.000000 20.567000 -56.607100 -6.029000 
-31.246092 17.393099 -3.314937 60.010378 85.158144 56.912045 -0.576487 -4.056702 -1.845931 -21.446633 -2.878304 1.741692 0.659448 11.200689 27.737710 -2.136398 12.088337 -16.804026 0.029600 -1.110600 -3.053300 -4.630504 2.631831 -4.979585 17.683305 0.083031 2.014830 -1.648060 -11.521883 29.725821 -0.111213 -18.221574 -35.905023 -0.237900 -3.139100 8.666400 -2.518451 2.924631 2.616893 0.160323 3.652924 -0.139339 1.635974 1.892760 5.887942 8.841784 19.562482 -2.319167 -0.365287 27.057476 12.626372 -2.310400 13.415800 12.795000 -7.557873 -2.793609 0.264940 -78.569049 -2.383693 29.387087 6.821120 -21.202107 -2.109545 -0.902636 0.298628 -4.296013 22.822415 -11.983266 -5.341600 -7.125000 0.000000 0.000000 -2.451100 16.596200 1.650400 12.240080 1.910405 -0.284521 68.743450 -1.309003 18.863314 -9.400237 21.767742 -3.182081 1.337007 1.125411 -6.794858 -9.944083 -26.448540 5.279800 7.125000 0.000000 0.000000 20.537100 -56.537000 -5.984300 
-31.248980 17.397163 -3.313547 59.305460 85.198901 56.351755 -0.590868 -4.069596 -1.855678 -21.333122 -2.979780 1.573006 0.671157 11.225262 27.817351 -2.120485 12.033180 -16.821987 0.021700 -0.950400 -2.612300 -4.645696 2.626588 -4.969249 17.766513 0.105246 1.867924 -1.627049 -11.499979 29.623830 -0.107457 -18.198981 -35.863850 -0.259700 -3.278400 9.054900 -2.525801 2.883273 2.566916 0.179021 3.595098 -0.141915 1.687777 1.858602 5.916763 8.852601 19.578451 -2.366845 -0.357609 27.087935 12.663218 -2.299000 13.425700 12.838900 -7.554668 -2.793975 0.266341 -78.498963 -2.487791 29.441044 6.811551 -21.188674 -2.105561 -0.898179 0.293916 -4.401202 22.644679 -11.922724 -5.269100 -7.125000 0.000000 0.000000 -2.574500 16.683200 1.728800 12.248221 1.912135 -0.282644 68.751494 -1.209094 19.090930 -9.475809 21.851950 -3.201752 1.332708 1.130476 -7.088351 -9.930356 -26.428925 5.270100 7.125000 0.000000 0.000000 20.536100 -56.514500 -5.972700 
